<svg xmlns="http://www.w3.org/2000/svg" width="169" height="40" viewBox="0 0 169 40" fill="none">
  <path fill-rule="evenodd" clip-rule="evenodd" d="M29.0723 1.88574C24.3542 11.4115 18.9111 20.6465 13.8486 29.9951H45.9502L43.8359 33.9951H11.6826L9.93262 37.2266C9.00891 38.932 7.22469 39.995 5.28516 39.9951H5C2.23866 39.9951 0.000131941 37.7564 0 34.9951C3.91714e-05 32.2337 2.2386 29.9951 5 29.9951H9.2998L22.2627 6.05859C20.7794 6.34026 19.0362 6.49512 17 6.49512V2.49512C23.3405 2.49512 25.0028 0.892332 25.416 0.234375L25.5439 0L29.0723 1.88574ZM5 33.9951C4.44774 33.9951 4.00004 34.4429 4 34.9951C4.00013 35.5473 4.4478 35.9951 5 35.9951H5.28516C5.75661 35.995 6.19046 35.7368 6.41504 35.3223L7.13379 33.9951H5ZM153.692 6.09082C154.023 6.02973 154.362 5.99512 154.706 5.99512C156.331 5.99526 157.731 6.6671 158.724 7.70508C159.759 6.63038 161.201 5.99512 162.74 5.99512C166.886 5.99549 169.583 10.359 167.729 14.0674L159.764 29.9971H160.465C164.434 29.9974 166.82 34.4015 164.652 37.7266C163.73 39.1417 162.154 39.995 160.465 39.9951H158.905C155.564 39.9951 153.207 37.0477 153.58 33.9971H93.9316L95.9551 29.9971H155.244L164.151 12.2783C164.676 11.2295 163.913 9.99549 162.74 9.99512C162.143 9.99512 161.596 10.3328 161.329 10.8672L152.73 27.9951H148.259L156.117 12.2783C156.641 11.2295 155.878 9.99549 154.706 9.99512C154.151 9.99512 153.638 10.2865 153.354 10.7568L146.196 25.0469C145.289 26.854 143.44 27.9951 141.418 27.9951C139.855 27.995 138.509 27.346 137.557 26.3447C136.39 27.3889 134.861 27.9951 133.24 27.9951C128.429 27.9951 125.3 22.9322 127.451 18.6289L130.255 13.0205C129.172 13.3136 128.05 13.4951 127 13.4951V9.49512C129.571 9.49512 132.585 8.3593 133.774 5.98242L137.353 7.77148L131.029 20.417C130.207 22.0607 131.402 23.9951 133.24 23.9951C134.176 23.995 135.032 23.4662 135.451 22.6289L143.774 5.98242L147.353 7.77148L140.211 22.0537C139.77 22.9472 140.42 23.9948 141.418 23.9951C141.927 23.9951 142.393 23.7077 142.621 23.2529L144.871 18.7705L149.717 9.07812C149.74 9.03164 149.767 8.98704 149.791 8.94141L151.712 5.10059L153.692 6.09082ZM157.691 34.0234C157.235 34.9274 157.893 35.9951 158.905 35.9951H160.465C160.802 35.995 161.117 35.8246 161.302 35.542C161.735 34.8777 161.258 33.9974 160.465 33.9971H157.705L157.691 34.0234ZM54.5957 5.99512C57.4465 5.99512 59.8061 7.46913 61.165 9.58301L62.9707 5.99609L66.5439 7.79297L53.1846 34.3496L58.0771 31.418C59.6303 30.4871 61.4071 29.9952 63.2178 29.9951H81.2334L79.1191 33.9951H63.2178C62.1314 33.9952 61.0647 34.2901 60.1328 34.8486L52.2861 39.5518C49.7094 41.096 46.7138 38.3147 48.0635 35.6309L51.9121 27.9775C51.7457 27.9882 51.5784 27.9951 51.4102 27.9951C45.6303 27.9951 41.8606 21.9422 44.3828 16.7637C43.3736 17.2276 42.3313 17.6205 41.2627 17.9404L38.3955 23.6758C37.0719 26.3228 34.3667 27.995 31.4072 27.9951C25.5986 27.9951 21.8203 21.8819 24.418 16.6865L27.6045 10.3145C28.9281 7.66743 31.6333 5.99524 34.5928 5.99512C38.9215 5.99512 42.1215 9.39031 42.3965 13.2705C44.2538 12.4558 45.9827 11.3612 47.5166 10.0146L48.0469 9.54785C49.4769 7.34884 51.9333 5.99523 54.5957 5.99512ZM31.708 11.3174C31.5037 11.5539 31.3253 11.8163 31.1816 12.1035L27.9961 18.4756C26.7282 21.0114 28.5721 23.9951 31.4072 23.9951C32.8516 23.995 34.1724 23.1787 34.8184 21.8867L36.6709 18.1797C33.6934 17.3187 31.5841 14.4441 31.708 11.3174ZM54.5957 9.99512C53.2122 9.99524 51.9438 10.745 51.2715 11.9434L51.1729 12.126L47.999 18.4756C46.7311 21.0114 48.5751 23.9951 51.4102 23.9951C52.8546 23.995 54.1753 23.1787 54.8213 21.8867L58.0068 15.5146C59.2747 12.9789 57.4308 9.99512 54.5957 9.99512ZM36.0371 10.2744C35.0659 12.1592 36.4192 14.2916 38.3574 14.4268C38.651 12.6727 37.6608 10.9354 36.0371 10.2744ZM100.497 6.19336C101.028 6.06343 101.579 5.99518 102.141 5.99512C107.284 5.99512 110.631 11.4082 108.331 16.0088L105.326 22.0166C104.872 22.9254 105.533 23.9949 106.549 23.9951C107.056 23.995 107.521 23.7141 107.758 23.2656C110.317 18.4123 112.964 13.5937 115.418 8.68652C116.243 7.03704 117.929 5.99512 119.773 5.99512H120V9.99512H119.773C119.444 9.99512 119.143 10.1812 118.996 10.4756C118.718 11.0319 118.869 11.7072 119.357 12.0918L122.819 14.8145C125.847 17.1965 126.728 21.4092 124.907 24.8047L124.808 24.9912C123.816 26.8406 121.887 27.9949 119.789 27.9951C115.539 27.9951 113.082 23.1741 115.58 19.7354L115.882 19.3193L119.118 21.6709L118.816 22.0859C118.239 22.8806 118.807 23.9951 119.789 23.9951C120.413 23.9949 120.987 23.6516 121.282 23.1016L121.383 22.9141C122.286 21.2297 121.849 19.1396 120.347 17.958L116.885 15.2354C116.796 15.1657 116.711 15.0928 116.628 15.0186L111.296 25.1318C110.367 26.8927 108.54 27.995 106.549 27.9951C104.95 27.995 103.576 27.3193 102.617 26.2812C101.377 27.3663 99.7668 27.995 98.0605 27.9951C95.8051 27.995 93.8949 26.9543 92.6553 25.3975C92.6267 25.4412 92.599 25.4855 92.5693 25.5283L87.04 36.5898H82.5674L86.9082 27.9072C83.5643 27.3024 81.5799 23.5799 83.2012 20.3936L84.8223 17.2061C83.8973 17.5902 82.9368 17.8989 81.9482 18.1221L81.0732 18.3193L78.3955 23.6758C77.0719 26.3228 74.3667 27.995 71.4072 27.9951C65.5986 27.9951 61.8203 21.8819 64.418 16.6865L67.6045 10.3145C68.9281 7.66743 71.6333 5.99524 74.5928 5.99512C79.1318 5.99512 82.4301 9.72801 82.416 13.8389C84.9987 12.9681 87.2685 11.3381 88.9229 9.14844L90.5322 5.9873L94.0967 7.80176L86.7656 22.208C86.35 23.0259 86.9448 23.9948 87.8623 23.9951C88.3651 23.995 88.8341 23.7759 89.1572 23.4092C92.2092 17.3064 95.2605 11.2033 98.3125 5.10059L100.497 6.19336ZM71.4834 11.6016C71.3713 11.7595 71.2699 11.9269 71.1816 12.1035L67.9961 18.4756C66.7282 21.0114 68.5721 23.9951 71.4072 23.9951C72.8516 23.995 74.1724 23.1787 74.8184 21.8867L76.4834 18.5547C73.4375 17.7227 71.296 14.7761 71.4834 11.6016ZM102.141 9.99512C101.042 9.99541 100.037 10.6133 99.5391 11.5918L95.4492 19.7705C94.4791 21.7114 95.8908 23.9948 98.0605 23.9951C99.1661 23.995 100.177 23.3697 100.672 22.3809L104.752 14.2197C105.722 12.2787 104.311 9.99512 102.141 9.99512ZM75.8301 10.6494C74.7824 12.5702 76.2429 14.7974 78.2822 14.7803C78.7834 12.9102 77.7686 10.9779 76.0342 10.2734L75.8301 10.6494ZM97.1396 1.82422L94.8096 6.40234L91.2451 4.58789L93.5742 0.00976562L97.1396 1.82422Z" fill="#080909"/>
</svg>
